<?xml version="1.0" standalone="no"?>
 <!DOCTYPE svg PUBLIC "-//W3C//DTD SVG 1.1//EN" 
 "http://www.w3.org/Graphics/SVG/1.1/DTD/svg11.dtd"> 
<svg
  xmlns:svg="http://www.w3.org/2000/svg"
  xmlns="http://www.w3.org/2000/svg"
  xmlns:xlink="http://www.w3.org/1999/xlink"
  version="1.1"
  width="29.700220cm" height="21.000720cm" viewBox="0 0 116930 82680">
<title>SVG Picture created as blinker.svg date 2022/10/07 18:19:10 </title>
  <desc>Picture generated by Eeschema-SVG </desc>
<g style="fill:#000000; fill-opacity:1.000000;stroke:#000000; stroke-opacity:1.000000;
stroke-linecap:round; stroke-linejoin:round;"
 transform="translate(0 0) scale(1 1)">
</g>
<g style="fill:#000000; fill-opacity:0.0; 
stroke:#000000; stroke-width:60.000000; stroke-opacity:1; 
stroke-linecap:round; stroke-linejoin:round;">
<g >
</g>
<g style="fill:#000000; fill-opacity:0.0; 
stroke:#000000; stroke-width:100.000000; stroke-opacity:1; 
stroke-linecap:round; stroke-linejoin:round;">
<path style="fill:#000000; fill-opacity:0.0; 
stroke:#000000; stroke-width:100.000000; stroke-opacity:1; 
stroke-linecap:round; stroke-linejoin:round;fill:none"
d="M 67500.000000,50000.000000
66500.000000,50000.000000
" /> 
</g>
<g style="fill:#000000; fill-opacity:0.0; 
stroke:#000000; stroke-width:60.000000; stroke-opacity:1; 
stroke-linecap:round; stroke-linejoin:round;">
<path style="fill:#000000; fill-opacity:0.0; 
stroke:#000000; stroke-width:60.000000; stroke-opacity:1; 
stroke-linecap:round; stroke-linejoin:round;fill:none"
d="M 67000.000000,50000.000000
67000.000000,49000.000000
" /> 
</g>
<g style="fill:#000000; fill-opacity:0.0; 
stroke:#000000; stroke-width:100.000000; stroke-opacity:1; 
stroke-linecap:round; stroke-linejoin:round;">
<path style="fill:#000000; fill-opacity:0.0; 
stroke:#000000; stroke-width:100.000000; stroke-opacity:1; 
stroke-linecap:round; stroke-linejoin:round;fill:none"
d="M 67500.000000,49000.000000
66500.000000,49000.000000
67000.000000,50000.000000
Z" /> 
</g>
<g style="fill:#000000; fill-opacity:0.0; 
stroke:#000000; stroke-width:60.000000; stroke-opacity:1; 
stroke-linecap:round; stroke-linejoin:round;">
<path style="fill:#000000; fill-opacity:0.0; 
stroke:#000000; stroke-width:60.000000; stroke-opacity:1; 
stroke-linecap:round; stroke-linejoin:round;fill:none"
d="M 67300.000000,50700.000000
67900.000000,51300.000000
67900.000000,51000.000000
67900.000000,51300.000000
67600.000000,51300.000000
" /> 
<path style="fill:#000000; fill-opacity:0.0; 
stroke:#000000; stroke-width:60.000000; stroke-opacity:1; 
stroke-linecap:round; stroke-linejoin:round;fill:none"
d="M 67300.000000,50200.000000
67900.000000,50800.000000
67900.000000,50500.000000
67900.000000,50800.000000
67600.000000,50800.000000
" /> 
<path d="M67000 50000
L67000 51000
" />
<path d="M67000 49000
L67000 48000
" />
<text x="69019.330709" y="49874.960630"
textLength="1106.181102" font-size="666.653543" lengthAdjust="spacingAndGlyphs"
text-anchor="middle" opacity="0">D1</text>
<g class="stroked-text"><desc>D1</desc>
<path d="M68650 49851
L68650 49351
L68769 49351
L68840 49374
L68888 49422
L68912 49470
L68935 49565
L68935 49636
L68912 49732
L68888 49779
L68840 49827
L68769 49851
L68650 49851
" />
<path d="M69412 49851
L69126 49851
" />
<path d="M69269 49851
L69269 49351
L69221 49422
L69174 49470
L69126 49493
" />
</g><text x="69209.803150" y="50874.960630"
textLength="1417.125984" font-size="666.653543" lengthAdjust="spacingAndGlyphs"
text-anchor="middle" opacity="0">LED</text>
<g class="stroked-text"><desc>LED</desc>
<path d="M68888 50851
L68650 50851
L68650 50351
" />
<path d="M69055 50589
L69221 50589
" />
<path d="M69293 50851
L69055 50851
L69055 50351
L69293 50351
" />
<path d="M69507 50851
L69507 50351
L69626 50351
L69697 50374
L69745 50422
L69769 50470
L69793 50565
L69793 50636
L69769 50732
L69745 50779
L69697 50827
L69626 50851
L69507 50851
" />
</g></g>
</g>
<g style="fill:#000000; fill-opacity:0.0; 
stroke:#000000; stroke-width:60.000000; stroke-opacity:1; 
stroke-linecap:round; stroke-linejoin:round;">
<g >
</g>
<g style="fill:#000000; fill-opacity:0.0; 
stroke:#000000; stroke-width:100.000000; stroke-opacity:1; 
stroke-linecap:round; stroke-linejoin:round;">
<rect x="55500.000000" y="31000.000000" width="8000.000000" height="18000.000000" rx="0.000000" />
</g>
<g style="fill:#000000; fill-opacity:0.0; 
stroke:#000000; stroke-width:60.000000; stroke-opacity:1; 
stroke-linecap:round; stroke-linejoin:round;">
<path d="M55500 35000
L54500 35000
" />
<text x="55700.000000" y="35250.000000"
textLength="2417.125984" font-size="666.653543" lengthAdjust="spacingAndGlyphs"
text-anchor="start" opacity="0">D1/TX</text>
<g class="stroked-text"><desc>D1/TX</desc>
<path d="M55849 35226
L55849 34726
L55968 34726
L56039 34750
L56087 34797
L56110 34845
L56134 34940
L56134 35011
L56110 35107
L56087 35154
L56039 35202
L55968 35226
L55849 35226
" />
<path d="M56610 35226
L56325 35226
" />
<path d="M56468 35226
L56468 34726
L56420 34797
L56372 34845
L56325 34869
" />
<path d="M57182 34702
L56753 35345
" />
<path d="M57277 34726
L57563 34726
" />
<path d="M57420 35226
L57420 34726
" />
<path d="M57682 34726
L58015 35226
" />
<path d="M58015 34726
L57682 35226
" />
</g><text x="55000.000000" y="34900.000000"
textLength="536.181102" font-size="666.653543" lengthAdjust="spacingAndGlyphs"
text-anchor="middle" opacity="0">1</text>
<g class="stroked-text"><desc>1</desc>
<path d="M55142 34876
L54857 34876
" />
<path d="M55000 34876
L55000 34376
L54952 34447
L54904 34495
L54857 34519
" />
</g><path d="M55500 41000
L54500 41000
" />
<text x="55700.000000" y="41250.000000"
textLength="1036.181102" font-size="666.653543" lengthAdjust="spacingAndGlyphs"
text-anchor="start" opacity="0">D7</text>
<g class="stroked-text"><desc>D7</desc>
<path d="M55849 41226
L55849 40726
L55968 40726
L56039 40750
L56087 40797
L56110 40845
L56134 40940
L56134 41011
L56110 41107
L56087 41154
L56039 41202
L55968 41226
L55849 41226
" />
<path d="M56301 40726
L56634 40726
L56420 41226
" />
</g><text x="55000.000000" y="40900.000000"
textLength="1012.362205" font-size="666.653543" lengthAdjust="spacingAndGlyphs"
text-anchor="middle" opacity="0">10</text>
<g class="stroked-text"><desc>10</desc>
<path d="M54904 40876
L54619 40876
" />
<path d="M54761 40876
L54761 40376
L54714 40447
L54666 40495
L54619 40519
" />
<path d="M55214 40376
L55261 40376
L55309 40400
L55333 40423
L55357 40471
L55380 40566
L55380 40685
L55357 40780
L55333 40828
L55309 40852
L55261 40876
L55214 40876
L55166 40852
L55142 40828
L55119 40780
L55095 40685
L55095 40566
L55119 40471
L55142 40423
L55166 40400
L55214 40376
" />
</g><path d="M55500 42000
L54500 42000
" />
<text x="55700.000000" y="42250.000000"
textLength="1036.181102" font-size="666.653543" lengthAdjust="spacingAndGlyphs"
text-anchor="start" opacity="0">D8</text>
<g class="stroked-text"><desc>D8</desc>
<path d="M55849 42226
L55849 41726
L55968 41726
L56039 41750
L56087 41797
L56110 41845
L56134 41940
L56134 42011
L56110 42107
L56087 42154
L56039 42202
L55968 42226
L55849 42226
" />
<path d="M56420 41940
L56372 41916
L56349 41892
L56325 41845
L56325 41821
L56349 41773
L56372 41750
L56420 41726
L56515 41726
L56563 41750
L56587 41773
L56610 41821
L56610 41845
L56587 41892
L56563 41916
L56515 41940
L56420 41940
L56372 41964
L56349 41988
L56325 42035
L56325 42130
L56349 42178
L56372 42202
L56420 42226
L56515 42226
L56563 42202
L56587 42178
L56610 42130
L56610 42035
L56587 41988
L56563 41964
L56515 41940
" />
</g><text x="55000.000000" y="41900.000000"
textLength="1012.362205" font-size="666.653543" lengthAdjust="spacingAndGlyphs"
text-anchor="middle" opacity="0">11</text>
<g class="stroked-text"><desc>11</desc>
<path d="M54904 41876
L54619 41876
" />
<path d="M54761 41876
L54761 41376
L54714 41447
L54666 41495
L54619 41519
" />
<path d="M55380 41876
L55095 41876
" />
<path d="M55238 41876
L55238 41376
L55190 41447
L55142 41495
L55095 41519
" />
</g><path d="M55500 43000
L54500 43000
" />
<text x="55700.000000" y="43250.000000"
textLength="1036.181102" font-size="666.653543" lengthAdjust="spacingAndGlyphs"
text-anchor="start" opacity="0">D9</text>
<g class="stroked-text"><desc>D9</desc>
<path d="M55849 43226
L55849 42726
L55968 42726
L56039 42750
L56087 42797
L56110 42845
L56134 42940
L56134 43011
L56110 43107
L56087 43154
L56039 43202
L55968 43226
L55849 43226
" />
<path d="M56372 43226
L56468 43226
L56515 43202
L56539 43178
L56587 43107
L56610 43011
L56610 42821
L56587 42773
L56563 42750
L56515 42726
L56420 42726
L56372 42750
L56349 42773
L56325 42821
L56325 42940
L56349 42988
L56372 43011
L56420 43035
L56515 43035
L56563 43011
L56587 42988
L56610 42940
" />
</g><text x="55000.000000" y="42900.000000"
textLength="1012.362205" font-size="666.653543" lengthAdjust="spacingAndGlyphs"
text-anchor="middle" opacity="0">12</text>
<g class="stroked-text"><desc>12</desc>
<path d="M54904 42876
L54619 42876
" />
<path d="M54761 42876
L54761 42376
L54714 42447
L54666 42495
L54619 42519
" />
<path d="M55095 42423
L55119 42400
L55166 42376
L55285 42376
L55333 42400
L55357 42423
L55380 42471
L55380 42519
L55357 42590
L55071 42876
L55380 42876
" />
</g><path d="M55500 44000
L54500 44000
" />
<text x="55700.000000" y="44250.000000"
textLength="1512.362205" font-size="666.653543" lengthAdjust="spacingAndGlyphs"
text-anchor="start" opacity="0">D10</text>
<g class="stroked-text"><desc>D10</desc>
<path d="M55849 44226
L55849 43726
L55968 43726
L56039 43750
L56087 43797
L56110 43845
L56134 43940
L56134 44011
L56110 44107
L56087 44154
L56039 44202
L55968 44226
L55849 44226
" />
<path d="M56610 44226
L56325 44226
" />
<path d="M56468 44226
L56468 43726
L56420 43797
L56372 43845
L56325 43869
" />
<path d="M56920 43726
L56968 43726
L57015 43750
L57039 43773
L57063 43821
L57087 43916
L57087 44035
L57063 44130
L57039 44178
L57015 44202
L56968 44226
L56920 44226
L56872 44202
L56849 44178
L56825 44130
L56801 44035
L56801 43916
L56825 43821
L56849 43773
L56872 43750
L56920 43726
" />
</g><text x="55000.000000" y="43900.000000"
textLength="1012.362205" font-size="666.653543" lengthAdjust="spacingAndGlyphs"
text-anchor="middle" opacity="0">13</text>
<g class="stroked-text"><desc>13</desc>
<path d="M54904 43876
L54619 43876
" />
<path d="M54761 43876
L54761 43376
L54714 43447
L54666 43495
L54619 43519
" />
<path d="M55071 43376
L55380 43376
L55214 43566
L55285 43566
L55333 43590
L55357 43614
L55380 43661
L55380 43780
L55357 43828
L55333 43852
L55285 43876
L55142 43876
L55095 43852
L55071 43828
" />
</g><path d="M55500 45000
L54500 45000
" />
<text x="55700.000000" y="45250.000000"
textLength="1512.362205" font-size="666.653543" lengthAdjust="spacingAndGlyphs"
text-anchor="start" opacity="0">D11</text>
<g class="stroked-text"><desc>D11</desc>
<path d="M55849 45226
L55849 44726
L55968 44726
L56039 44750
L56087 44797
L56110 44845
L56134 44940
L56134 45011
L56110 45107
L56087 45154
L56039 45202
L55968 45226
L55849 45226
" />
<path d="M56610 45226
L56325 45226
" />
<path d="M56468 45226
L56468 44726
L56420 44797
L56372 44845
L56325 44869
" />
<path d="M57087 45226
L56801 45226
" />
<path d="M56944 45226
L56944 44726
L56896 44797
L56849 44845
L56801 44869
" />
</g><text x="55000.000000" y="44900.000000"
textLength="1012.362205" font-size="666.653543" lengthAdjust="spacingAndGlyphs"
text-anchor="middle" opacity="0">14</text>
<g class="stroked-text"><desc>14</desc>
<path d="M54904 44876
L54619 44876
" />
<path d="M54761 44876
L54761 44376
L54714 44447
L54666 44495
L54619 44519
" />
<path d="M55333 44542
L55333 44876
" />
<path d="M55214 44352
L55095 44709
L55404 44709
" />
</g><path d="M55500 46000
L54500 46000
" />
<text x="55700.000000" y="46250.000000"
textLength="1512.362205" font-size="666.653543" lengthAdjust="spacingAndGlyphs"
text-anchor="start" opacity="0">D12</text>
<g class="stroked-text"><desc>D12</desc>
<path d="M55849 46226
L55849 45726
L55968 45726
L56039 45750
L56087 45797
L56110 45845
L56134 45940
L56134 46011
L56110 46107
L56087 46154
L56039 46202
L55968 46226
L55849 46226
" />
<path d="M56610 46226
L56325 46226
" />
<path d="M56468 46226
L56468 45726
L56420 45797
L56372 45845
L56325 45869
" />
<path d="M56801 45773
L56825 45750
L56872 45726
L56991 45726
L57039 45750
L57063 45773
L57087 45821
L57087 45869
L57063 45940
L56777 46226
L57087 46226
" />
</g><text x="55000.000000" y="45900.000000"
textLength="1012.362205" font-size="666.653543" lengthAdjust="spacingAndGlyphs"
text-anchor="middle" opacity="0">15</text>
<g class="stroked-text"><desc>15</desc>
<path d="M54904 45876
L54619 45876
" />
<path d="M54761 45876
L54761 45376
L54714 45447
L54666 45495
L54619 45519
" />
<path d="M55357 45376
L55119 45376
L55095 45614
L55119 45590
L55166 45566
L55285 45566
L55333 45590
L55357 45614
L55380 45661
L55380 45780
L55357 45828
L55333 45852
L55285 45876
L55166 45876
L55119 45852
L55095 45828
" />
</g><path d="M55500 47000
L54500 47000
" />
<text x="55700.000000" y="47250.000000"
textLength="1512.362205" font-size="666.653543" lengthAdjust="spacingAndGlyphs"
text-anchor="start" opacity="0">D13</text>
<g class="stroked-text"><desc>D13</desc>
<path d="M55849 47226
L55849 46726
L55968 46726
L56039 46750
L56087 46797
L56110 46845
L56134 46940
L56134 47011
L56110 47107
L56087 47154
L56039 47202
L55968 47226
L55849 47226
" />
<path d="M56610 47226
L56325 47226
" />
<path d="M56468 47226
L56468 46726
L56420 46797
L56372 46845
L56325 46869
" />
<path d="M56777 46726
L57087 46726
L56920 46916
L56991 46916
L57039 46940
L57063 46964
L57087 47011
L57087 47130
L57063 47178
L57039 47202
L56991 47226
L56849 47226
L56801 47202
L56777 47178
" />
</g><text x="55000.000000" y="46900.000000"
textLength="1012.362205" font-size="666.653543" lengthAdjust="spacingAndGlyphs"
text-anchor="middle" opacity="0">16</text>
<g class="stroked-text"><desc>16</desc>
<path d="M54904 46876
L54619 46876
" />
<path d="M54761 46876
L54761 46376
L54714 46447
L54666 46495
L54619 46519
" />
<path d="M55333 46376
L55238 46376
L55190 46400
L55166 46423
L55119 46495
L55095 46590
L55095 46780
L55119 46828
L55142 46852
L55190 46876
L55285 46876
L55333 46852
L55357 46828
L55380 46780
L55380 46661
L55357 46614
L55333 46590
L55285 46566
L55190 46566
L55142 46590
L55119 46614
L55095 46661
" />
</g><path d="M60500 31000
L60500 30000
" />
<g transform="rotate(-90.000000 60500.000000 31200.000000)">
<text x="60500.000000" y="31450.000000"
textLength="1440.944882" font-size="666.653543" lengthAdjust="spacingAndGlyphs"
text-anchor="end" opacity="0">3V3</text>
</g>
<g class="stroked-text"><desc>3V3</desc>
<path d="M60226 32539
L60226 32230
L60416 32396
L60416 32325
L60440 32277
L60464 32253
L60511 32230
L60630 32230
L60678 32253
L60702 32277
L60726 32325
L60726 32468
L60702 32515
L60678 32539
" />
<path d="M60226 32087
L60726 31920
L60226 31753
" />
<path d="M60226 31634
L60226 31325
L60416 31491
L60416 31420
L60440 31372
L60464 31349
L60511 31325
L60630 31325
L60678 31349
L60702 31372
L60726 31420
L60726 31563
L60702 31610
L60678 31634
" />
</g><g transform="rotate(-90.000000 60400.000000 30500.000000)">
<text x="60400.000000" y="30500.000000"
textLength="1012.362205" font-size="666.653543" lengthAdjust="spacingAndGlyphs"
text-anchor="middle" opacity="0">17</text>
</g>
<g class="stroked-text"><desc>17</desc>
<path d="M60376 30595
L60376 30880
" />
<path d="M60376 30738
L59876 30738
L59947 30785
L59995 30833
L60019 30880
" />
<path d="M59876 30428
L59876 30095
L60376 30309
" />
</g><path d="M63500 38000
L64500 38000
" />
<text x="63300.000000" y="38250.000000"
textLength="1869.527559" font-size="666.653543" lengthAdjust="spacingAndGlyphs"
text-anchor="end" opacity="0">AREF</text>
<g class="stroked-text"><desc>AREF</desc>
<path d="M61555 38083
L61793 38083
" />
<path d="M61508 38226
L61674 37726
L61841 38226
" />
<path d="M62293 38226
L62127 37988
" />
<path d="M62008 38226
L62008 37726
L62198 37726
L62246 37750
L62270 37773
L62293 37821
L62293 37892
L62270 37940
L62246 37964
L62198 37988
L62008 37988
" />
<path d="M62508 37964
L62674 37964
" />
<path d="M62746 38226
L62508 38226
L62508 37726
L62746 37726
" />
<path d="M63127 37964
L62960 37964
" />
<path d="M62960 38226
L62960 37726
L63198 37726
" />
</g><text x="64000.000000" y="37900.000000"
textLength="1012.362205" font-size="666.653543" lengthAdjust="spacingAndGlyphs"
text-anchor="middle" opacity="0">18</text>
<g class="stroked-text"><desc>18</desc>
<path d="M63904 37876
L63619 37876
" />
<path d="M63761 37876
L63761 37376
L63714 37447
L63666 37495
L63619 37519
" />
<path d="M64190 37590
L64142 37566
L64119 37542
L64095 37495
L64095 37471
L64119 37423
L64142 37400
L64190 37376
L64285 37376
L64333 37400
L64357 37423
L64380 37471
L64380 37495
L64357 37542
L64333 37566
L64285 37590
L64190 37590
L64142 37614
L64119 37638
L64095 37685
L64095 37780
L64119 37828
L64142 37852
L64190 37876
L64285 37876
L64333 37852
L64357 37828
L64380 37780
L64380 37685
L64357 37638
L64333 37614
L64285 37590
" />
</g><path d="M63500 40000
L64500 40000
" />
<text x="63300.000000" y="40250.000000"
textLength="964.763780" font-size="666.653543" lengthAdjust="spacingAndGlyphs"
text-anchor="end" opacity="0">A0</text>
<g class="stroked-text"><desc>A0</desc>
<path d="M62460 40083
L62698 40083
" />
<path d="M62412 40226
L62579 39726
L62746 40226
" />
<path d="M63008 39726
L63055 39726
L63103 39750
L63127 39773
L63150 39821
L63174 39916
L63174 40035
L63150 40130
L63127 40178
L63103 40202
L63055 40226
L63008 40226
L62960 40202
L62936 40178
L62912 40130
L62889 40035
L62889 39916
L62912 39821
L62936 39773
L62960 39750
L63008 39726
" />
</g><text x="64000.000000" y="39900.000000"
textLength="1012.362205" font-size="666.653543" lengthAdjust="spacingAndGlyphs"
text-anchor="middle" opacity="0">19</text>
<g class="stroked-text"><desc>19</desc>
<path d="M63904 39876
L63619 39876
" />
<path d="M63761 39876
L63761 39376
L63714 39447
L63666 39495
L63619 39519
" />
<path d="M64142 39876
L64238 39876
L64285 39852
L64309 39828
L64357 39757
L64380 39661
L64380 39471
L64357 39423
L64333 39400
L64285 39376
L64190 39376
L64142 39400
L64119 39423
L64095 39471
L64095 39590
L64119 39638
L64142 39661
L64190 39685
L64285 39685
L64333 39661
L64357 39638
L64380 39590
" />
</g><path d="M55500 34000
L54500 34000
" />
<text x="55700.000000" y="34250.000000"
textLength="2536.181102" font-size="666.653543" lengthAdjust="spacingAndGlyphs"
text-anchor="start" opacity="0">D0/RX</text>
<g class="stroked-text"><desc>D0/RX</desc>
<path d="M55849 34226
L55849 33726
L55968 33726
L56039 33750
L56087 33797
L56110 33845
L56134 33940
L56134 34011
L56110 34107
L56087 34154
L56039 34202
L55968 34226
L55849 34226
" />
<path d="M56444 33726
L56491 33726
L56539 33750
L56563 33773
L56587 33821
L56610 33916
L56610 34035
L56587 34130
L56563 34178
L56539 34202
L56491 34226
L56444 34226
L56396 34202
L56372 34178
L56349 34130
L56325 34035
L56325 33916
L56349 33821
L56372 33773
L56396 33750
L56444 33726
" />
<path d="M57182 33702
L56753 34345
" />
<path d="M57634 34226
L57468 33988
" />
<path d="M57349 34226
L57349 33726
L57539 33726
L57587 33750
L57610 33773
L57634 33821
L57634 33892
L57610 33940
L57587 33964
L57539 33988
L57349 33988
" />
<path d="M57801 33726
L58134 34226
" />
<path d="M58134 33726
L57801 34226
" />
</g><text x="55000.000000" y="33900.000000"
textLength="536.181102" font-size="666.653543" lengthAdjust="spacingAndGlyphs"
text-anchor="middle" opacity="0">2</text>
<g class="stroked-text"><desc>2</desc>
<path d="M54857 33423
L54880 33400
L54928 33376
L55047 33376
L55095 33400
L55119 33423
L55142 33471
L55142 33519
L55119 33590
L54833 33876
L55142 33876
" />
</g><path d="M63500 41000
L64500 41000
" />
<text x="63300.000000" y="41250.000000"
textLength="964.763780" font-size="666.653543" lengthAdjust="spacingAndGlyphs"
text-anchor="end" opacity="0">A1</text>
<g class="stroked-text"><desc>A1</desc>
<path d="M62460 41083
L62698 41083
" />
<path d="M62412 41226
L62579 40726
L62746 41226
" />
<path d="M63174 41226
L62889 41226
" />
<path d="M63031 41226
L63031 40726
L62984 40797
L62936 40845
L62889 40869
" />
</g><text x="64000.000000" y="40900.000000"
textLength="1012.362205" font-size="666.653543" lengthAdjust="spacingAndGlyphs"
text-anchor="middle" opacity="0">20</text>
<g class="stroked-text"><desc>20</desc>
<path d="M63619 40423
L63642 40400
L63690 40376
L63809 40376
L63857 40400
L63880 40423
L63904 40471
L63904 40519
L63880 40590
L63595 40876
L63904 40876
" />
<path d="M64214 40376
L64261 40376
L64309 40400
L64333 40423
L64357 40471
L64380 40566
L64380 40685
L64357 40780
L64333 40828
L64309 40852
L64261 40876
L64214 40876
L64166 40852
L64142 40828
L64119 40780
L64095 40685
L64095 40566
L64119 40471
L64142 40423
L64166 40400
L64214 40376
" />
</g><path d="M63500 42000
L64500 42000
" />
<text x="63300.000000" y="42250.000000"
textLength="964.763780" font-size="666.653543" lengthAdjust="spacingAndGlyphs"
text-anchor="end" opacity="0">A2</text>
<g class="stroked-text"><desc>A2</desc>
<path d="M62460 42083
L62698 42083
" />
<path d="M62412 42226
L62579 41726
L62746 42226
" />
<path d="M62889 41773
L62912 41750
L62960 41726
L63079 41726
L63127 41750
L63150 41773
L63174 41821
L63174 41869
L63150 41940
L62865 42226
L63174 42226
" />
</g><text x="64000.000000" y="41900.000000"
textLength="1012.362205" font-size="666.653543" lengthAdjust="spacingAndGlyphs"
text-anchor="middle" opacity="0">21</text>
<g class="stroked-text"><desc>21</desc>
<path d="M63619 41423
L63642 41400
L63690 41376
L63809 41376
L63857 41400
L63880 41423
L63904 41471
L63904 41519
L63880 41590
L63595 41876
L63904 41876
" />
<path d="M64380 41876
L64095 41876
" />
<path d="M64238 41876
L64238 41376
L64190 41447
L64142 41495
L64095 41519
" />
</g><path d="M63500 43000
L64500 43000
" />
<text x="63300.000000" y="43250.000000"
textLength="964.763780" font-size="666.653543" lengthAdjust="spacingAndGlyphs"
text-anchor="end" opacity="0">A3</text>
<g class="stroked-text"><desc>A3</desc>
<path d="M62460 43083
L62698 43083
" />
<path d="M62412 43226
L62579 42726
L62746 43226
" />
<path d="M62865 42726
L63174 42726
L63008 42916
L63079 42916
L63127 42940
L63150 42964
L63174 43011
L63174 43130
L63150 43178
L63127 43202
L63079 43226
L62936 43226
L62889 43202
L62865 43178
" />
</g><text x="64000.000000" y="42900.000000"
textLength="1012.362205" font-size="666.653543" lengthAdjust="spacingAndGlyphs"
text-anchor="middle" opacity="0">22</text>
<g class="stroked-text"><desc>22</desc>
<path d="M63619 42423
L63642 42400
L63690 42376
L63809 42376
L63857 42400
L63880 42423
L63904 42471
L63904 42519
L63880 42590
L63595 42876
L63904 42876
" />
<path d="M64095 42423
L64119 42400
L64166 42376
L64285 42376
L64333 42400
L64357 42423
L64380 42471
L64380 42519
L64357 42590
L64071 42876
L64380 42876
" />
</g><path d="M63500 44000
L64500 44000
" />
<text x="63300.000000" y="44250.000000"
textLength="964.763780" font-size="666.653543" lengthAdjust="spacingAndGlyphs"
text-anchor="end" opacity="0">A4</text>
<g class="stroked-text"><desc>A4</desc>
<path d="M62460 44083
L62698 44083
" />
<path d="M62412 44226
L62579 43726
L62746 44226
" />
<path d="M63127 43892
L63127 44226
" />
<path d="M63008 43702
L62889 44059
L63198 44059
" />
</g><text x="64000.000000" y="43900.000000"
textLength="1012.362205" font-size="666.653543" lengthAdjust="spacingAndGlyphs"
text-anchor="middle" opacity="0">23</text>
<g class="stroked-text"><desc>23</desc>
<path d="M63619 43423
L63642 43400
L63690 43376
L63809 43376
L63857 43400
L63880 43423
L63904 43471
L63904 43519
L63880 43590
L63595 43876
L63904 43876
" />
<path d="M64071 43376
L64380 43376
L64214 43566
L64285 43566
L64333 43590
L64357 43614
L64380 43661
L64380 43780
L64357 43828
L64333 43852
L64285 43876
L64142 43876
L64095 43852
L64071 43828
" />
</g><path d="M63500 45000
L64500 45000
" />
<text x="63300.000000" y="45250.000000"
textLength="964.763780" font-size="666.653543" lengthAdjust="spacingAndGlyphs"
text-anchor="end" opacity="0">A5</text>
<g class="stroked-text"><desc>A5</desc>
<path d="M62460 45083
L62698 45083
" />
<path d="M62412 45226
L62579 44726
L62746 45226
" />
<path d="M63150 44726
L62912 44726
L62889 44964
L62912 44940
L62960 44916
L63079 44916
L63127 44940
L63150 44964
L63174 45011
L63174 45130
L63150 45178
L63127 45202
L63079 45226
L62960 45226
L62912 45202
L62889 45178
" />
</g><text x="64000.000000" y="44900.000000"
textLength="1012.362205" font-size="666.653543" lengthAdjust="spacingAndGlyphs"
text-anchor="middle" opacity="0">24</text>
<g class="stroked-text"><desc>24</desc>
<path d="M63619 44423
L63642 44400
L63690 44376
L63809 44376
L63857 44400
L63880 44423
L63904 44471
L63904 44519
L63880 44590
L63595 44876
L63904 44876
" />
<path d="M64333 44542
L64333 44876
" />
<path d="M64214 44352
L64095 44709
L64404 44709
" />
</g><path d="M63500 46000
L64500 46000
" />
<text x="63300.000000" y="46250.000000"
textLength="964.763780" font-size="666.653543" lengthAdjust="spacingAndGlyphs"
text-anchor="end" opacity="0">A6</text>
<g class="stroked-text"><desc>A6</desc>
<path d="M62460 46083
L62698 46083
" />
<path d="M62412 46226
L62579 45726
L62746 46226
" />
<path d="M63127 45726
L63031 45726
L62984 45750
L62960 45773
L62912 45845
L62889 45940
L62889 46130
L62912 46178
L62936 46202
L62984 46226
L63079 46226
L63127 46202
L63150 46178
L63174 46130
L63174 46011
L63150 45964
L63127 45940
L63079 45916
L62984 45916
L62936 45940
L62912 45964
L62889 46011
" />
</g><text x="64000.000000" y="45900.000000"
textLength="1012.362205" font-size="666.653543" lengthAdjust="spacingAndGlyphs"
text-anchor="middle" opacity="0">25</text>
<g class="stroked-text"><desc>25</desc>
<path d="M63619 45423
L63642 45400
L63690 45376
L63809 45376
L63857 45400
L63880 45423
L63904 45471
L63904 45519
L63880 45590
L63595 45876
L63904 45876
" />
<path d="M64357 45376
L64119 45376
L64095 45614
L64119 45590
L64166 45566
L64285 45566
L64333 45590
L64357 45614
L64380 45661
L64380 45780
L64357 45828
L64333 45852
L64285 45876
L64166 45876
L64119 45852
L64095 45828
" />
</g><path d="M63500 47000
L64500 47000
" />
<text x="63300.000000" y="47250.000000"
textLength="964.763780" font-size="666.653543" lengthAdjust="spacingAndGlyphs"
text-anchor="end" opacity="0">A7</text>
<g class="stroked-text"><desc>A7</desc>
<path d="M62460 47083
L62698 47083
" />
<path d="M62412 47226
L62579 46726
L62746 47226
" />
<path d="M62865 46726
L63198 46726
L62984 47226
" />
</g><text x="64000.000000" y="46900.000000"
textLength="1012.362205" font-size="666.653543" lengthAdjust="spacingAndGlyphs"
text-anchor="middle" opacity="0">26</text>
<g class="stroked-text"><desc>26</desc>
<path d="M63619 46423
L63642 46400
L63690 46376
L63809 46376
L63857 46400
L63880 46423
L63904 46471
L63904 46519
L63880 46590
L63595 46876
L63904 46876
" />
<path d="M64333 46376
L64238 46376
L64190 46400
L64166 46423
L64119 46495
L64095 46590
L64095 46780
L64119 46828
L64142 46852
L64190 46876
L64285 46876
L64333 46852
L64357 46828
L64380 46780
L64380 46661
L64357 46614
L64333 46590
L64285 46566
L64190 46566
L64142 46590
L64119 46614
L64095 46661
" />
</g><path d="M61500 31000
L61500 30000
" />
<g transform="rotate(-90.000000 61500.000000 31200.000000)">
<text x="61500.000000" y="31450.000000"
textLength="1583.818898" font-size="666.653543" lengthAdjust="spacingAndGlyphs"
text-anchor="end" opacity="0">+5V</text>
</g>
<g class="stroked-text"><desc>+5V</desc>
<path d="M61535 32634
L61535 32253
" />
<path d="M61726 32444
L61345 32444
" />
<path d="M61226 31777
L61226 32015
L61464 32039
L61440 32015
L61416 31968
L61416 31849
L61440 31801
L61464 31777
L61511 31753
L61630 31753
L61678 31777
L61702 31801
L61726 31849
L61726 31968
L61702 32015
L61678 32039
" />
<path d="M61226 31610
L61726 31444
L61226 31277
" />
</g><g transform="rotate(-90.000000 61400.000000 30500.000000)">
<text x="61400.000000" y="30500.000000"
textLength="1012.362205" font-size="666.653543" lengthAdjust="spacingAndGlyphs"
text-anchor="middle" opacity="0">27</text>
</g>
<g class="stroked-text"><desc>27</desc>
<path d="M60923 30880
L60900 30857
L60876 30809
L60876 30690
L60900 30642
L60923 30619
L60971 30595
L61019 30595
L61090 30619
L61376 30904
L61376 30595
" />
<path d="M60876 30428
L60876 30095
L61376 30309
" />
</g><path d="M63500 34000
L64500 34000
" />
<text x="63300.000000" y="34250.000000"
textLength="2321.889764" font-size="666.653543" lengthAdjust="spacingAndGlyphs"
text-anchor="end" opacity="0">~{RESET}</text>
<g class="stroked-text"><desc>~{RESET}</desc>
<path d="M61008 33585
L61508 33585
" />
<path d="M61412 34226
L61246 33988
" />
<path d="M61127 34226
L61127 33726
L61317 33726
L61365 33750
L61389 33773
L61412 33821
L61412 33892
L61389 33940
L61365 33964
L61317 33988
L61127 33988
" />
<path d="M61508 33585
L61960 33585
" />
<path d="M61627 33964
L61793 33964
" />
<path d="M61865 34226
L61627 34226
L61627 33726
L61865 33726
" />
<path d="M61960 33585
L62436 33585
" />
<path d="M62055 34202
L62127 34226
L62246 34226
L62293 34202
L62317 34178
L62341 34130
L62341 34083
L62317 34035
L62293 34011
L62246 33988
L62150 33964
L62103 33940
L62079 33916
L62055 33869
L62055 33821
L62079 33773
L62103 33750
L62150 33726
L62270 33726
L62341 33750
" />
<path d="M62436 33585
L62889 33585
" />
<path d="M62555 33964
L62722 33964
" />
<path d="M62793 34226
L62555 34226
L62555 33726
L62793 33726
" />
<path d="M62889 33585
L63270 33585
" />
<path d="M62936 33726
L63222 33726
" />
<path d="M63079 34226
L63079 33726
" />
</g><text x="64000.000000" y="33900.000000"
textLength="1012.362205" font-size="666.653543" lengthAdjust="spacingAndGlyphs"
text-anchor="middle" opacity="0">28</text>
<g class="stroked-text"><desc>28</desc>
<path d="M63619 33423
L63642 33400
L63690 33376
L63809 33376
L63857 33400
L63880 33423
L63904 33471
L63904 33519
L63880 33590
L63595 33876
L63904 33876
" />
<path d="M64190 33590
L64142 33566
L64119 33542
L64095 33495
L64095 33471
L64119 33423
L64142 33400
L64190 33376
L64285 33376
L64333 33400
L64357 33423
L64380 33471
L64380 33495
L64357 33542
L64333 33566
L64285 33590
L64190 33590
L64142 33614
L64119 33638
L64095 33685
L64095 33780
L64119 33828
L64142 33852
L64190 33876
L64285 33876
L64333 33852
L64357 33828
L64380 33780
L64380 33685
L64357 33638
L64333 33614
L64285 33590
" />
</g><path d="M60500 49000
L60500 50000
" />
<g transform="rotate(-90.000000 60500.000000 48800.000000)">
<text x="60500.000000" y="49050.000000"
textLength="1583.818898" font-size="666.653543" lengthAdjust="spacingAndGlyphs"
text-anchor="start" opacity="0">GND</text>
</g>
<g class="stroked-text"><desc>GND</desc>
<path d="M60250 48389
L60226 48436
L60226 48508
L60250 48579
L60297 48627
L60345 48650
L60440 48674
L60511 48674
L60607 48650
L60654 48627
L60702 48579
L60726 48508
L60726 48460
L60702 48389
L60678 48365
L60511 48365
L60511 48460
" />
<path d="M60726 48150
L60226 48150
L60726 47865
L60226 47865
" />
<path d="M60726 47627
L60226 47627
L60226 47508
L60250 47436
L60297 47389
L60345 47365
L60440 47341
L60511 47341
L60607 47365
L60654 47389
L60702 47436
L60726 47508
L60726 47627
" />
</g><g transform="rotate(-90.000000 60400.000000 49500.000000)">
<text x="60400.000000" y="49500.000000"
textLength="1012.362205" font-size="666.653543" lengthAdjust="spacingAndGlyphs"
text-anchor="middle" opacity="0">29</text>
</g>
<g class="stroked-text"><desc>29</desc>
<path d="M59923 49880
L59900 49857
L59876 49809
L59876 49690
L59900 49642
L59923 49619
L59971 49595
L60019 49595
L60090 49619
L60376 49904
L60376 49595
" />
<path d="M60376 49357
L60376 49261
L60352 49214
L60328 49190
L60257 49142
L60161 49119
L59971 49119
L59923 49142
L59900 49166
L59876 49214
L59876 49309
L59900 49357
L59923 49380
L59971 49404
L60090 49404
L60138 49380
L60161 49357
L60185 49309
L60185 49214
L60161 49166
L60138 49142
L60090 49119
" />
</g><path d="M63500 35000
L64500 35000
" />
<text x="63300.000000" y="35250.000000"
textLength="2321.889764" font-size="666.653543" lengthAdjust="spacingAndGlyphs"
text-anchor="end" opacity="0">~{RESET}</text>
<g class="stroked-text"><desc>~{RESET}</desc>
<path d="M61008 34585
L61508 34585
" />
<path d="M61412 35226
L61246 34988
" />
<path d="M61127 35226
L61127 34726
L61317 34726
L61365 34750
L61389 34773
L61412 34821
L61412 34892
L61389 34940
L61365 34964
L61317 34988
L61127 34988
" />
<path d="M61508 34585
L61960 34585
" />
<path d="M61627 34964
L61793 34964
" />
<path d="M61865 35226
L61627 35226
L61627 34726
L61865 34726
" />
<path d="M61960 34585
L62436 34585
" />
<path d="M62055 35202
L62127 35226
L62246 35226
L62293 35202
L62317 35178
L62341 35130
L62341 35083
L62317 35035
L62293 35011
L62246 34988
L62150 34964
L62103 34940
L62079 34916
L62055 34869
L62055 34821
L62079 34773
L62103 34750
L62150 34726
L62270 34726
L62341 34750
" />
<path d="M62436 34585
L62889 34585
" />
<path d="M62555 34964
L62722 34964
" />
<path d="M62793 35226
L62555 35226
L62555 34726
L62793 34726
" />
<path d="M62889 34585
L63270 34585
" />
<path d="M62936 34726
L63222 34726
" />
<path d="M63079 35226
L63079 34726
" />
</g><text x="64000.000000" y="34900.000000"
textLength="536.181102" font-size="666.653543" lengthAdjust="spacingAndGlyphs"
text-anchor="middle" opacity="0">3</text>
<g class="stroked-text"><desc>3</desc>
<path d="M63833 34376
L64142 34376
L63976 34566
L64047 34566
L64095 34590
L64119 34614
L64142 34661
L64142 34780
L64119 34828
L64095 34852
L64047 34876
L63904 34876
L63857 34852
L63833 34828
" />
</g><path d="M58500 31000
L58500 30000
" />
<g transform="rotate(-90.000000 58500.000000 31200.000000)">
<text x="58500.000000" y="31450.000000"
textLength="1250.472441" font-size="666.653543" lengthAdjust="spacingAndGlyphs"
text-anchor="end" opacity="0">VIN</text>
</g>
<g class="stroked-text"><desc>VIN</desc>
<path d="M58226 32372
L58726 32206
L58226 32039
" />
<path d="M58726 31872
L58226 31872
" />
<path d="M58726 31634
L58226 31634
L58726 31349
L58226 31349
" />
</g><g transform="rotate(-90.000000 58400.000000 30500.000000)">
<text x="58400.000000" y="30500.000000"
textLength="1012.362205" font-size="666.653543" lengthAdjust="spacingAndGlyphs"
text-anchor="middle" opacity="0">30</text>
</g>
<g class="stroked-text"><desc>30</desc>
<path d="M57876 30904
L57876 30595
L58066 30761
L58066 30690
L58090 30642
L58114 30619
L58161 30595
L58280 30595
L58328 30619
L58352 30642
L58376 30690
L58376 30833
L58352 30880
L58328 30904
" />
<path d="M57876 30285
L57876 30238
L57900 30190
L57923 30166
L57971 30142
L58066 30119
L58185 30119
L58280 30142
L58328 30166
L58352 30190
L58376 30238
L58376 30285
L58352 30333
L58328 30357
L58280 30380
L58185 30404
L58066 30404
L57971 30380
L57923 30357
L57900 30333
L57876 30285
" />
</g><path d="M59500 49000
L59500 50000
" />
<g transform="rotate(-90.000000 59500.000000 48800.000000)">
<text x="59500.000000" y="49050.000000"
textLength="1583.818898" font-size="666.653543" lengthAdjust="spacingAndGlyphs"
text-anchor="start" opacity="0">GND</text>
</g>
<g class="stroked-text"><desc>GND</desc>
<path d="M59250 48389
L59226 48436
L59226 48508
L59250 48579
L59297 48627
L59345 48650
L59440 48674
L59511 48674
L59607 48650
L59654 48627
L59702 48579
L59726 48508
L59726 48460
L59702 48389
L59678 48365
L59511 48365
L59511 48460
" />
<path d="M59726 48150
L59226 48150
L59726 47865
L59226 47865
" />
<path d="M59726 47627
L59226 47627
L59226 47508
L59250 47436
L59297 47389
L59345 47365
L59440 47341
L59511 47341
L59607 47365
L59654 47389
L59702 47436
L59726 47508
L59726 47627
" />
</g><g transform="rotate(-90.000000 59400.000000 49500.000000)">
<text x="59400.000000" y="49500.000000"
textLength="536.181102" font-size="666.653543" lengthAdjust="spacingAndGlyphs"
text-anchor="middle" opacity="0">4</text>
</g>
<g class="stroked-text"><desc>4</desc>
<path d="M59042 49404
L59376 49404
" />
<path d="M58852 49523
L59209 49642
L59209 49333
" />
</g><path d="M55500 36000
L54500 36000
" />
<text x="55700.000000" y="36250.000000"
textLength="1036.181102" font-size="666.653543" lengthAdjust="spacingAndGlyphs"
text-anchor="start" opacity="0">D2</text>
<g class="stroked-text"><desc>D2</desc>
<path d="M55849 36226
L55849 35726
L55968 35726
L56039 35750
L56087 35797
L56110 35845
L56134 35940
L56134 36011
L56110 36107
L56087 36154
L56039 36202
L55968 36226
L55849 36226
" />
<path d="M56325 35773
L56349 35750
L56396 35726
L56515 35726
L56563 35750
L56587 35773
L56610 35821
L56610 35869
L56587 35940
L56301 36226
L56610 36226
" />
</g><text x="55000.000000" y="35900.000000"
textLength="536.181102" font-size="666.653543" lengthAdjust="spacingAndGlyphs"
text-anchor="middle" opacity="0">5</text>
<g class="stroked-text"><desc>5</desc>
<path d="M55119 35376
L54880 35376
L54857 35614
L54880 35590
L54928 35566
L55047 35566
L55095 35590
L55119 35614
L55142 35661
L55142 35780
L55119 35828
L55095 35852
L55047 35876
L54928 35876
L54880 35852
L54857 35828
" />
</g><path d="M55500 37000
L54500 37000
" />
<text x="55700.000000" y="37250.000000"
textLength="1036.181102" font-size="666.653543" lengthAdjust="spacingAndGlyphs"
text-anchor="start" opacity="0">D3</text>
<g class="stroked-text"><desc>D3</desc>
<path d="M55849 37226
L55849 36726
L55968 36726
L56039 36750
L56087 36797
L56110 36845
L56134 36940
L56134 37011
L56110 37107
L56087 37154
L56039 37202
L55968 37226
L55849 37226
" />
<path d="M56301 36726
L56610 36726
L56444 36916
L56515 36916
L56563 36940
L56587 36964
L56610 37011
L56610 37130
L56587 37178
L56563 37202
L56515 37226
L56372 37226
L56325 37202
L56301 37178
" />
</g><text x="55000.000000" y="36900.000000"
textLength="536.181102" font-size="666.653543" lengthAdjust="spacingAndGlyphs"
text-anchor="middle" opacity="0">6</text>
<g class="stroked-text"><desc>6</desc>
<path d="M55095 36376
L55000 36376
L54952 36400
L54928 36423
L54880 36495
L54857 36590
L54857 36780
L54880 36828
L54904 36852
L54952 36876
L55047 36876
L55095 36852
L55119 36828
L55142 36780
L55142 36661
L55119 36614
L55095 36590
L55047 36566
L54952 36566
L54904 36590
L54880 36614
L54857 36661
" />
</g><path d="M55500 38000
L54500 38000
" />
<text x="55700.000000" y="38250.000000"
textLength="1036.181102" font-size="666.653543" lengthAdjust="spacingAndGlyphs"
text-anchor="start" opacity="0">D4</text>
<g class="stroked-text"><desc>D4</desc>
<path d="M55849 38226
L55849 37726
L55968 37726
L56039 37750
L56087 37797
L56110 37845
L56134 37940
L56134 38011
L56110 38107
L56087 38154
L56039 38202
L55968 38226
L55849 38226
" />
<path d="M56563 37892
L56563 38226
" />
<path d="M56444 37702
L56325 38059
L56634 38059
" />
</g><text x="55000.000000" y="37900.000000"
textLength="536.181102" font-size="666.653543" lengthAdjust="spacingAndGlyphs"
text-anchor="middle" opacity="0">7</text>
<g class="stroked-text"><desc>7</desc>
<path d="M54833 37376
L55166 37376
L54952 37876
" />
</g><path d="M55500 39000
L54500 39000
" />
<text x="55700.000000" y="39250.000000"
textLength="1036.181102" font-size="666.653543" lengthAdjust="spacingAndGlyphs"
text-anchor="start" opacity="0">D5</text>
<g class="stroked-text"><desc>D5</desc>
<path d="M55849 39226
L55849 38726
L55968 38726
L56039 38750
L56087 38797
L56110 38845
L56134 38940
L56134 39011
L56110 39107
L56087 39154
L56039 39202
L55968 39226
L55849 39226
" />
<path d="M56587 38726
L56349 38726
L56325 38964
L56349 38940
L56396 38916
L56515 38916
L56563 38940
L56587 38964
L56610 39011
L56610 39130
L56587 39178
L56563 39202
L56515 39226
L56396 39226
L56349 39202
L56325 39178
" />
</g><text x="55000.000000" y="38900.000000"
textLength="536.181102" font-size="666.653543" lengthAdjust="spacingAndGlyphs"
text-anchor="middle" opacity="0">8</text>
<g class="stroked-text"><desc>8</desc>
<path d="M54952 38590
L54904 38566
L54880 38542
L54857 38495
L54857 38471
L54880 38423
L54904 38400
L54952 38376
L55047 38376
L55095 38400
L55119 38423
L55142 38471
L55142 38495
L55119 38542
L55095 38566
L55047 38590
L54952 38590
L54904 38614
L54880 38638
L54857 38685
L54857 38780
L54880 38828
L54904 38852
L54952 38876
L55047 38876
L55095 38852
L55119 38828
L55142 38780
L55142 38685
L55119 38638
L55095 38614
L55047 38590
" />
</g><path d="M55500 40000
L54500 40000
" />
<text x="55700.000000" y="40250.000000"
textLength="1036.181102" font-size="666.653543" lengthAdjust="spacingAndGlyphs"
text-anchor="start" opacity="0">D6</text>
<g class="stroked-text"><desc>D6</desc>
<path d="M55849 40226
L55849 39726
L55968 39726
L56039 39750
L56087 39797
L56110 39845
L56134 39940
L56134 40011
L56110 40107
L56087 40154
L56039 40202
L55968 40226
L55849 40226
" />
<path d="M56563 39726
L56468 39726
L56420 39750
L56396 39773
L56349 39845
L56325 39940
L56325 40130
L56349 40178
L56372 40202
L56420 40226
L56515 40226
L56563 40202
L56587 40178
L56610 40130
L56610 40011
L56587 39964
L56563 39940
L56515 39916
L56420 39916
L56372 39940
L56349 39964
L56325 40011
" />
</g><text x="55000.000000" y="39900.000000"
textLength="536.181102" font-size="666.653543" lengthAdjust="spacingAndGlyphs"
text-anchor="middle" opacity="0">9</text>
<g class="stroked-text"><desc>9</desc>
<path d="M54904 39876
L55000 39876
L55047 39852
L55071 39828
L55119 39757
L55142 39661
L55142 39471
L55119 39423
L55095 39400
L55047 39376
L54952 39376
L54904 39400
L54880 39423
L54857 39471
L54857 39590
L54880 39638
L54904 39661
L54952 39685
L55047 39685
L55095 39661
L55119 39638
L55142 39590
" />
</g><text x="61778.661417" y="50249.960630"
textLength="964.763780" font-size="666.653543" lengthAdjust="spacingAndGlyphs"
text-anchor="middle" opacity="0">A1</text>
<g class="stroked-text"><desc>A1</desc>
<path d="M61421 50083
L61659 50083
" />
<path d="M61373 50226
L61540 49726
L61707 50226
" />
<path d="M62135 50226
L61850 50226
" />
<path d="M61992 50226
L61992 49726
L61945 49797
L61897 49845
L61850 49868
" />
</g><g transform="rotate(-90.000000 59499.960630 41004.448819)">
<text x="59499.960630" y="41254.448819"
textLength="6988.582677" font-size="666.653543" lengthAdjust="spacingAndGlyphs"
text-anchor="middle" opacity="0">Arduino_Nano_v3.x</text>
</g>
<g class="stroked-text"><desc>Arduino_Nano_v3.x</desc>
<path d="M59583 44373
L59583 44135
" />
<path d="M59726 44421
L59226 44254
L59726 44087
" />
<path d="M59726 43921
L59392 43921
" />
<path d="M59488 43921
L59440 43897
L59416 43873
L59392 43825
L59392 43778
" />
<path d="M59726 43397
L59226 43397
" />
<path d="M59702 43397
L59726 43444
L59726 43540
L59702 43587
L59678 43611
L59630 43635
L59488 43635
L59440 43611
L59416 43587
L59392 43540
L59392 43444
L59416 43397
" />
<path d="M59392 42944
L59726 42944
" />
<path d="M59392 43159
L59654 43159
L59702 43135
L59726 43087
L59726 43016
L59702 42968
L59678 42944
" />
<path d="M59726 42706
L59392 42706
" />
<path d="M59226 42706
L59249 42730
L59273 42706
L59249 42682
L59226 42706
L59273 42706
" />
<path d="M59392 42468
L59726 42468
" />
<path d="M59440 42468
L59416 42444
L59392 42397
L59392 42325
L59416 42278
L59464 42254
L59726 42254
" />
<path d="M59726 41944
L59702 41992
L59678 42016
L59630 42040
L59488 42040
L59440 42016
L59416 41992
L59392 41944
L59392 41873
L59416 41825
L59440 41802
L59488 41778
L59630 41778
L59678 41802
L59702 41825
L59726 41873
L59726 41944
" />
<path d="M59773 41682
L59773 41302
" />
<path d="M59726 41182
L59226 41182
L59726 40897
L59226 40897
" />
<path d="M59726 40444
L59464 40444
L59416 40468
L59392 40516
L59392 40611
L59416 40659
" />
<path d="M59702 40444
L59726 40492
L59726 40611
L59702 40659
L59654 40682
L59607 40682
L59559 40659
L59535 40611
L59535 40492
L59511 40444
" />
<path d="M59392 40206
L59726 40206
" />
<path d="M59440 40206
L59416 40182
L59392 40135
L59392 40063
L59416 40016
L59464 39992
L59726 39992
" />
<path d="M59726 39682
L59702 39730
L59678 39754
L59630 39778
L59488 39778
L59440 39754
L59416 39730
L59392 39682
L59392 39611
L59416 39563
L59440 39540
L59488 39516
L59630 39516
L59678 39540
L59702 39563
L59726 39611
L59726 39682
" />
<path d="M59773 39421
L59773 39040
" />
<path d="M59392 38968
L59726 38849
L59392 38730
" />
<path d="M59226 38587
L59226 38278
L59416 38444
L59416 38373
L59440 38325
L59464 38302
L59511 38278
L59630 38278
L59678 38302
L59702 38325
L59726 38373
L59726 38516
L59702 38563
L59678 38587
" />
<path d="M59678 38063
L59702 38040
L59726 38063
L59702 38087
L59678 38063
L59726 38063
" />
<path d="M59726 37873
L59392 37611
" />
<path d="M59392 37873
L59726 37611
" />
</g></g>
</g>
<g style="fill:#000000; fill-opacity:0.0; 
stroke:#000000; stroke-width:60.000000; stroke-opacity:1; 
stroke-linecap:round; stroke-linejoin:round;">
<g >
<path style="fill:#000000; fill-opacity:0.0; 
stroke:#000000; stroke-width:60.000000; stroke-opacity:1; 
stroke-linecap:round; stroke-linejoin:round;fill:none"
d="M 61200.000000,28000.000000
61500.000000,27500.000000
" /> 
<path style="fill:#000000; fill-opacity:0.0; 
stroke:#000000; stroke-width:60.000000; stroke-opacity:1; 
stroke-linecap:round; stroke-linejoin:round;fill:none"
d="M 61500.000000,28500.000000
61500.000000,27500.000000
" /> 
<path style="fill:#000000; fill-opacity:0.0; 
stroke:#000000; stroke-width:60.000000; stroke-opacity:1; 
stroke-linecap:round; stroke-linejoin:round;fill:none"
d="M 61500.000000,27500.000000
61800.000000,28000.000000
" /> 
<text x="61500.000000" y="26749.960630"
textLength="1583.818898" font-size="666.653543" lengthAdjust="spacingAndGlyphs"
text-anchor="middle" opacity="0">+5V</text>
<g class="stroked-text"><desc>+5V</desc>
<path d="M60857 26535
L61238 26535
" />
<path d="M61047 26726
L61047 26345
" />
<path d="M61714 26226
L61476 26226
L61452 26464
L61476 26440
L61523 26416
L61642 26416
L61690 26440
L61714 26464
L61738 26511
L61738 26630
L61714 26678
L61690 26702
L61642 26726
L61523 26726
L61476 26702
L61452 26678
" />
<path d="M61880 26226
L62047 26726
L62214 26226
" />
</g></g>
</g>
<g style="fill:#000000; fill-opacity:0.0; 
stroke:#000000; stroke-width:60.000000; stroke-opacity:1; 
stroke-linecap:round; stroke-linejoin:round;">
<g >
<rect x="77600.000000" y="45600.000000" width="1800.000000" height="200.000000" rx="0.000000" />
<path style="fill:#000000; fill-opacity:0.0; 
stroke:#000000; stroke-width:60.000000; stroke-opacity:1; 
stroke-linecap:round; stroke-linejoin:round;fill:none"
d="M 77800.000000,45100.000000
78200.000000,45100.000000
" /> 
<path style="fill:#000000; fill-opacity:0.0; 
stroke:#000000; stroke-width:60.000000; stroke-opacity:1; 
stroke-linecap:round; stroke-linejoin:round;fill:none"
d="M 78000.000000,44900.000000
78000.000000,45300.000000
" /> 
</g>
<g style="fill:#000000; fill-opacity:1.0; 
stroke:#000000; stroke-width:60.000000; stroke-opacity:1; 
stroke-linecap:round; stroke-linejoin:round;">
<rect x="77600.000000" y="46200.000000" width="1800.000000" height="200.000000" rx="0.000000" />
</g>
<g style="fill:#000000; fill-opacity:0.0; 
stroke:#000000; stroke-width:60.000000; stroke-opacity:1; 
stroke-linecap:round; stroke-linejoin:round;">
<path d="M78500 45600
L78500 44500
" />
<path d="M78500 46400
L78500 47500
" />
<text x="80519.330709" y="45399.921260"
textLength="1036.181102" font-size="666.653543" lengthAdjust="spacingAndGlyphs"
text-anchor="middle" opacity="0">C1</text>
<g class="stroked-text"><desc>C1</desc>
<path d="M80435 45328
L80412 45352
L80340 45376
L80293 45376
L80221 45352
L80174 45304
L80150 45257
L80126 45161
L80126 45090
L80150 44995
L80174 44947
L80221 44899
L80293 44876
L80340 44876
L80412 44899
L80435 44923
" />
<path d="M80912 45376
L80626 45376
" />
<path d="M80769 45376
L80769 44876
L80721 44947
L80674 44995
L80626 45018
" />
</g><text x="82400.314961" y="46399.921260"
textLength="4798.110236" font-size="666.653543" lengthAdjust="spacingAndGlyphs"
text-anchor="middle" opacity="0">4.7 .. 100uF</text>
<g class="stroked-text"><desc>4.7 .. 100uF</desc>
<path d="M80364 46042
L80364 46376
" />
<path d="M80245 45852
L80126 46209
L80436 46209
" />
<path d="M80626 46328
L80650 46352
L80626 46376
L80602 46352
L80626 46328
L80626 46376
" />
<path d="M80816 45876
L81150 45876
L80936 46376
" />
<path d="M81721 46328
L81745 46352
L81721 46376
L81697 46352
L81721 46328
L81721 46376
" />
<path d="M81959 46328
L81983 46352
L81959 46376
L81936 46352
L81959 46328
L81959 46376
" />
<path d="M82840 46376
L82555 46376
" />
<path d="M82697 46376
L82697 45876
L82650 45947
L82602 45995
L82555 46018
" />
<path d="M83150 45876
L83197 45876
L83245 45899
L83269 45923
L83293 45971
L83316 46066
L83316 46185
L83293 46280
L83269 46328
L83245 46352
L83197 46376
L83150 46376
L83102 46352
L83078 46328
L83055 46280
L83031 46185
L83031 46066
L83055 45971
L83078 45923
L83102 45899
L83150 45876
" />
<path d="M83626 45876
L83674 45876
L83721 45899
L83745 45923
L83769 45971
L83793 46066
L83793 46185
L83769 46280
L83745 46328
L83721 46352
L83674 46376
L83626 46376
L83578 46352
L83555 46328
L83531 46280
L83507 46185
L83507 46066
L83531 45971
L83555 45923
L83578 45899
L83626 45876
" />
<path d="M84221 46042
L84221 46376
" />
<path d="M84007 46042
L84007 46304
L84031 46352
L84078 46376
L84150 46376
L84197 46352
L84221 46328
" />
<path d="M84626 46114
L84459 46114
" />
<path d="M84459 46376
L84459 45876
L84697 45876
" />
</g></g>
</g>
<g style="fill:#000000; fill-opacity:0.0; 
stroke:#000000; stroke-width:60.000000; stroke-opacity:1; 
stroke-linecap:round; stroke-linejoin:round;">
<g >
<path style="fill:#000000; fill-opacity:0.0; 
stroke:#000000; stroke-width:60.000000; stroke-opacity:1; 
stroke-linecap:round; stroke-linejoin:round;fill:none"
d="M 78500.000000,36000.000000
78500.000000,35840.000000
" /> 
</g>
<g style="fill:#000000; fill-opacity:1.0; 
stroke:#000000; stroke-width:60.000000; stroke-opacity:1; 
stroke-linecap:round; stroke-linejoin:round;">
<rect x="78450.000000" y="35500.000000" width="100.000000" height="340.000000" rx="0.000000" />
</g>
<g style="fill:#000000; fill-opacity:0.0; 
stroke:#000000; stroke-width:60.000000; stroke-opacity:1; 
stroke-linecap:round; stroke-linejoin:round;">
<path d="M78500 36000
L78500 37500
" />
<g transform="rotate(-90.000000 78400.000000 36750.000000)">
<text x="78400.000000" y="36750.000000"
textLength="536.181102" font-size="666.653543" lengthAdjust="spacingAndGlyphs"
text-anchor="middle" opacity="0">1</text>
</g>
<g class="stroked-text"><desc>1</desc>
<path d="M78376 36607
L78376 36892
" />
<path d="M78376 36750
L77876 36750
L77947 36797
L77995 36845
L78019 36892
" />
</g><text x="79459.803150" y="35999.921260"
textLength="917.125984" font-size="666.653543" lengthAdjust="spacingAndGlyphs"
text-anchor="middle" opacity="0">J2</text>
<g class="stroked-text"><desc>J2</desc>
<path d="M79293 35476
L79293 35833
L79269 35904
L79221 35952
L79150 35976
L79102 35976
" />
<path d="M79507 35523
L79531 35499
L79578 35476
L79697 35476
L79745 35499
L79769 35523
L79793 35571
L79793 35618
L79769 35690
L79483 35976
L79793 35976
" />
</g></g>
</g>
<g style="fill:#000000; fill-opacity:0.0; 
stroke:#000000; stroke-width:60.000000; stroke-opacity:1; 
stroke-linecap:round; stroke-linejoin:round;">
<g >
<path style="fill:#000000; fill-opacity:0.0; 
stroke:#000000; stroke-width:60.000000; stroke-opacity:1; 
stroke-linecap:round; stroke-linejoin:round;fill:none"
d="M 78500.000000,53500.000000
78500.000000,54000.000000
79000.000000,54000.000000
78500.000000,54500.000000
78000.000000,54000.000000
78500.000000,54000.000000
" /> 
<text x="78500.000000" y="55749.960630"
textLength="1583.818898" font-size="666.653543" lengthAdjust="spacingAndGlyphs"
text-anchor="middle" opacity="0">GND</text>
<g class="stroked-text"><desc>GND</desc>
<path d="M78119 55249
L78071 55226
L78000 55226
L77928 55249
L77880 55297
L77857 55345
L77833 55440
L77833 55511
L77857 55607
L77880 55654
L77928 55702
L78000 55726
L78047 55726
L78119 55702
L78142 55678
L78142 55511
L78047 55511
" />
<path d="M78357 55726
L78357 55226
L78642 55726
L78642 55226
" />
<path d="M78880 55726
L78880 55226
L79000 55226
L79071 55249
L79119 55297
L79142 55345
L79166 55440
L79166 55511
L79142 55607
L79119 55654
L79071 55702
L79000 55726
L78880 55726
" />
</g></g>
</g>
<g style="fill:#000000; fill-opacity:0.0; 
stroke:#000000; stroke-width:60.000000; stroke-opacity:1; 
stroke-linecap:round; stroke-linejoin:round;">
<g >
<path style="fill:#000000; fill-opacity:0.0; 
stroke:#000000; stroke-width:60.000000; stroke-opacity:1; 
stroke-linecap:round; stroke-linejoin:round;fill:none"
d="M 72000.000000,36000.000000
72000.000000,35840.000000
" /> 
</g>
<g style="fill:#000000; fill-opacity:1.0; 
stroke:#000000; stroke-width:60.000000; stroke-opacity:1; 
stroke-linecap:round; stroke-linejoin:round;">
<rect x="71950.000000" y="35500.000000" width="100.000000" height="340.000000" rx="0.000000" />
</g>
<g style="fill:#000000; fill-opacity:0.0; 
stroke:#000000; stroke-width:60.000000; stroke-opacity:1; 
stroke-linecap:round; stroke-linejoin:round;">
<path d="M72000 36000
L72000 37500
" />
<g transform="rotate(-90.000000 71900.000000 36750.000000)">
<text x="71900.000000" y="36750.000000"
textLength="536.181102" font-size="666.653543" lengthAdjust="spacingAndGlyphs"
text-anchor="middle" opacity="0">1</text>
</g>
<g class="stroked-text"><desc>1</desc>
<path d="M71876 36607
L71876 36892
" />
<path d="M71876 36750
L71376 36750
L71447 36797
L71495 36845
L71519 36892
" />
</g><text x="72959.803150" y="35999.921260"
textLength="917.125984" font-size="666.653543" lengthAdjust="spacingAndGlyphs"
text-anchor="middle" opacity="0">J1</text>
<g class="stroked-text"><desc>J1</desc>
<path d="M72793 35476
L72793 35833
L72769 35904
L72721 35952
L72650 35976
L72602 35976
" />
<path d="M73293 35976
L73007 35976
" />
<path d="M73150 35976
L73150 35476
L73102 35547
L73055 35595
L73007 35618
" />
</g></g>
</g>
<g style="fill:#000000; fill-opacity:0.0; 
stroke:#000000; stroke-width:60.000000; stroke-opacity:1; 
stroke-linecap:round; stroke-linejoin:round;">
<g >
<path style="fill:#000000; fill-opacity:0.0; 
stroke:#000000; stroke-width:60.000000; stroke-opacity:1; 
stroke-linecap:round; stroke-linejoin:round;fill:none"
d="M 59500.000000,53500.000000
59500.000000,54000.000000
60000.000000,54000.000000
59500.000000,54500.000000
59000.000000,54000.000000
59500.000000,54000.000000
" /> 
<text x="59500.000000" y="55749.960630"
textLength="1583.818898" font-size="666.653543" lengthAdjust="spacingAndGlyphs"
text-anchor="middle" opacity="0">GND</text>
<g class="stroked-text"><desc>GND</desc>
<path d="M59119 55249
L59071 55226
L59000 55226
L58928 55249
L58880 55297
L58857 55345
L58833 55440
L58833 55511
L58857 55607
L58880 55654
L58928 55702
L59000 55726
L59047 55726
L59119 55702
L59142 55678
L59142 55511
L59047 55511
" />
<path d="M59357 55726
L59357 55226
L59642 55726
L59642 55226
" />
<path d="M59880 55726
L59880 55226
L60000 55226
L60071 55249
L60119 55297
L60142 55345
L60166 55440
L60166 55511
L60142 55607
L60119 55654
L60071 55702
L60000 55726
L59880 55726
" />
</g></g>
</g>
<g style="fill:#000000; fill-opacity:0.0; 
stroke:#000000; stroke-width:60.000000; stroke-opacity:1; 
stroke-linecap:round; stroke-linejoin:round;">
<g >
<path style="fill:#000000; fill-opacity:0.0; 
stroke:#000000; stroke-width:60.000000; stroke-opacity:1; 
stroke-linecap:round; stroke-linejoin:round;fill:none"
d="M 69500.000000,53500.000000
69500.000000,54000.000000
70000.000000,54000.000000
69500.000000,54500.000000
69000.000000,54000.000000
69500.000000,54000.000000
" /> 
<text x="69500.000000" y="55749.960630"
textLength="1583.818898" font-size="666.653543" lengthAdjust="spacingAndGlyphs"
text-anchor="middle" opacity="0">GND</text>
<g class="stroked-text"><desc>GND</desc>
<path d="M69119 55249
L69071 55226
L69000 55226
L68928 55249
L68880 55297
L68857 55345
L68833 55440
L68833 55511
L68857 55607
L68880 55654
L68928 55702
L69000 55726
L69047 55726
L69119 55702
L69142 55678
L69142 55511
L69047 55511
" />
<path d="M69357 55726
L69357 55226
L69642 55726
L69642 55226
" />
<path d="M69880 55726
L69880 55226
L70000 55226
L70071 55249
L70119 55297
L70142 55345
L70166 55440
L70166 55511
L70142 55607
L70119 55654
L70071 55702
L70000 55726
L69880 55726
" />
</g></g>
</g>
<g style="fill:#000000; fill-opacity:0.0; 
stroke:#000000; stroke-width:60.000000; stroke-opacity:1; 
stroke-linecap:round; stroke-linejoin:round;">
<g >
</g>
<g style="fill:#000000; fill-opacity:0.0; 
stroke:#000000; stroke-width:100.000000; stroke-opacity:1; 
stroke-linecap:round; stroke-linejoin:round;">
<rect x="71600.000000" y="45000.000000" width="800.000000" height="2000.000000" rx="0.000000" />
</g>
<g style="fill:#000000; fill-opacity:0.0; 
stroke:#000000; stroke-width:60.000000; stroke-opacity:1; 
stroke-linecap:round; stroke-linejoin:round;">
<path d="M72000 47000
L72000 47500
" />
<path d="M72000 45000
L72000 44500
" />
<g transform="rotate(-90.000000 71000.000000 46500.000000)">
<text x="71000.000000" y="46750.000000"
textLength="1036.181102" font-size="666.653543" lengthAdjust="spacingAndGlyphs"
text-anchor="middle" opacity="0">R2</text>
</g>
<g class="stroked-text"><desc>R2</desc>
<path d="M71226 46583
L70988 46750
" />
<path d="M71226 46869
L70726 46869
L70726 46678
L70750 46630
L70773 46607
L70821 46583
L70892 46583
L70940 46607
L70964 46630
L70988 46678
L70988 46869
" />
<path d="M70773 46392
L70750 46369
L70726 46321
L70726 46202
L70750 46154
L70773 46130
L70821 46107
L70869 46107
L70940 46130
L71226 46416
L71226 46107
" />
</g><g transform="rotate(-90.000000 73000.000000 46000.000000)">
<text x="73000.000000" y="46250.000000"
textLength="1988.582677" font-size="666.653543" lengthAdjust="spacingAndGlyphs"
text-anchor="middle" opacity="0">220R</text>
</g>
<g class="stroked-text"><desc>220R</desc>
<path d="M72773 46869
L72750 46845
L72726 46797
L72726 46678
L72750 46630
L72773 46607
L72821 46583
L72869 46583
L72940 46607
L73226 46892
L73226 46583
" />
<path d="M72773 46392
L72750 46369
L72726 46321
L72726 46202
L72750 46154
L72773 46130
L72821 46107
L72869 46107
L72940 46130
L73226 46416
L73226 46107
" />
<path d="M72726 45797
L72726 45750
L72750 45702
L72773 45678
L72821 45654
L72916 45630
L73035 45630
L73130 45654
L73178 45678
L73202 45702
L73226 45750
L73226 45797
L73202 45845
L73178 45869
L73130 45892
L73035 45916
L72916 45916
L72821 45892
L72773 45869
L72750 45845
L72726 45797
" />
<path d="M73226 45130
L72988 45297
" />
<path d="M73226 45416
L72726 45416
L72726 45226
L72750 45178
L72773 45154
L72821 45130
L72892 45130
L72940 45154
L72964 45178
L72988 45226
L72988 45416
" />
</g></g>
</g>
<g style="fill:#000000; fill-opacity:0.0; 
stroke:#000000; stroke-width:60.000000; stroke-opacity:1; 
stroke-linecap:round; stroke-linejoin:round;">
<g >
</g>
<g style="fill:#000000; fill-opacity:0.0; 
stroke:#000000; stroke-width:100.000000; stroke-opacity:1; 
stroke-linecap:round; stroke-linejoin:round;">
<path style="fill:#000000; fill-opacity:0.0; 
stroke:#000000; stroke-width:100.000000; stroke-opacity:1; 
stroke-linecap:round; stroke-linejoin:round;fill:none"
d="M 72500.000000,50000.000000
71500.000000,50000.000000
" /> 
</g>
<g style="fill:#000000; fill-opacity:0.0; 
stroke:#000000; stroke-width:60.000000; stroke-opacity:1; 
stroke-linecap:round; stroke-linejoin:round;">
<path style="fill:#000000; fill-opacity:0.0; 
stroke:#000000; stroke-width:60.000000; stroke-opacity:1; 
stroke-linecap:round; stroke-linejoin:round;fill:none"
d="M 72000.000000,50000.000000
72000.000000,49000.000000
" /> 
</g>
<g style="fill:#000000; fill-opacity:0.0; 
stroke:#000000; stroke-width:100.000000; stroke-opacity:1; 
stroke-linecap:round; stroke-linejoin:round;">
<path style="fill:#000000; fill-opacity:0.0; 
stroke:#000000; stroke-width:100.000000; stroke-opacity:1; 
stroke-linecap:round; stroke-linejoin:round;fill:none"
d="M 72500.000000,49000.000000
71500.000000,49000.000000
72000.000000,50000.000000
Z" /> 
</g>
<g style="fill:#000000; fill-opacity:0.0; 
stroke:#000000; stroke-width:60.000000; stroke-opacity:1; 
stroke-linecap:round; stroke-linejoin:round;">
<path style="fill:#000000; fill-opacity:0.0; 
stroke:#000000; stroke-width:60.000000; stroke-opacity:1; 
stroke-linecap:round; stroke-linejoin:round;fill:none"
d="M 72300.000000,50700.000000
72900.000000,51300.000000
72900.000000,51000.000000
72900.000000,51300.000000
72600.000000,51300.000000
" /> 
<path style="fill:#000000; fill-opacity:0.0; 
stroke:#000000; stroke-width:60.000000; stroke-opacity:1; 
stroke-linecap:round; stroke-linejoin:round;fill:none"
d="M 72300.000000,50200.000000
72900.000000,50800.000000
72900.000000,50500.000000
72900.000000,50800.000000
72600.000000,50800.000000
" /> 
<path d="M72000 50000
L72000 51000
" />
<path d="M72000 49000
L72000 48000
" />
<text x="74019.330709" y="49874.960630"
textLength="1036.181102" font-size="666.653543" lengthAdjust="spacingAndGlyphs"
text-anchor="middle" opacity="0">D2</text>
<g class="stroked-text"><desc>D2</desc>
<path d="M73650 49851
L73650 49351
L73769 49351
L73840 49374
L73888 49422
L73912 49470
L73935 49565
L73935 49636
L73912 49732
L73888 49779
L73840 49827
L73769 49851
L73650 49851
" />
<path d="M74126 49398
L74150 49374
L74197 49351
L74316 49351
L74364 49374
L74388 49398
L74412 49446
L74412 49493
L74388 49565
L74102 49851
L74412 49851
" />
</g><text x="74209.803150" y="50874.960630"
textLength="1417.125984" font-size="666.653543" lengthAdjust="spacingAndGlyphs"
text-anchor="middle" opacity="0">LED</text>
<g class="stroked-text"><desc>LED</desc>
<path d="M73888 50851
L73650 50851
L73650 50351
" />
<path d="M74055 50589
L74221 50589
" />
<path d="M74293 50851
L74055 50851
L74055 50351
L74293 50351
" />
<path d="M74507 50851
L74507 50351
L74626 50351
L74697 50374
L74745 50422
L74769 50470
L74793 50565
L74793 50636
L74769 50732
L74745 50779
L74697 50827
L74626 50851
L74507 50851
" />
</g></g>
</g>
<g style="fill:#000000; fill-opacity:0.0; 
stroke:#000000; stroke-width:60.000000; stroke-opacity:1; 
stroke-linecap:round; stroke-linejoin:round;">
<g >
</g>
<g style="fill:#000000; fill-opacity:0.0; 
stroke:#000000; stroke-width:100.000000; stroke-opacity:1; 
stroke-linecap:round; stroke-linejoin:round;">
<rect x="66600.000000" y="45000.000000" width="800.000000" height="2000.000000" rx="0.000000" />
</g>
<g style="fill:#000000; fill-opacity:0.0; 
stroke:#000000; stroke-width:60.000000; stroke-opacity:1; 
stroke-linecap:round; stroke-linejoin:round;">
<path d="M67000 45000
L67000 44500
" />
<path d="M67000 47000
L67000 47500
" />
<g transform="rotate(-90.000000 65999.960630 46499.960630)">
<text x="65999.960630" y="46749.960630"
textLength="1036.181102" font-size="666.653543" lengthAdjust="spacingAndGlyphs"
text-anchor="middle" opacity="0">R1</text>
</g>
<g class="stroked-text"><desc>R1</desc>
<path d="M66226 46583
L65988 46749
" />
<path d="M66226 46868
L65726 46868
L65726 46678
L65749 46630
L65773 46607
L65821 46583
L65892 46583
L65940 46607
L65964 46630
L65988 46678
L65988 46868
" />
<path d="M66226 46107
L66226 46392
" />
<path d="M66226 46249
L65726 46249
L65797 46297
L65845 46345
L65868 46392
" />
</g><g transform="rotate(-90.000000 67999.960630 46000.000000)">
<text x="67999.960630" y="46250.000000"
textLength="1988.582677" font-size="666.653543" lengthAdjust="spacingAndGlyphs"
text-anchor="middle" opacity="0">220R</text>
</g>
<g class="stroked-text"><desc>220R</desc>
<path d="M67773 46869
L67749 46845
L67726 46797
L67726 46678
L67749 46630
L67773 46607
L67821 46583
L67868 46583
L67940 46607
L68226 46892
L68226 46583
" />
<path d="M67773 46392
L67749 46369
L67726 46321
L67726 46202
L67749 46154
L67773 46130
L67821 46107
L67868 46107
L67940 46130
L68226 46416
L68226 46107
" />
<path d="M67726 45797
L67726 45750
L67749 45702
L67773 45678
L67821 45654
L67916 45630
L68035 45630
L68130 45654
L68178 45678
L68202 45702
L68226 45750
L68226 45797
L68202 45845
L68178 45869
L68130 45892
L68035 45916
L67916 45916
L67821 45892
L67773 45869
L67749 45845
L67726 45797
" />
<path d="M68226 45130
L67988 45297
" />
<path d="M68226 45416
L67726 45416
L67726 45226
L67749 45178
L67773 45154
L67821 45130
L67892 45130
L67940 45154
L67964 45178
L67988 45226
L67988 45416
" />
</g></g>
</g>
<g style="fill:#000000; fill-opacity:0.0; 
stroke:#000000; stroke-width:60.000000; stroke-opacity:1; 
stroke-linecap:round; stroke-linejoin:round;">
<path d="M78500 42000
L78500 44500
" />
<path d="M69500 52500
L72000 52500
" />
<path d="M72000 51000
L72000 52500
" />
<path d="M72000 43000
L72000 44500
" />
<path d="M64500 42000
L78500 42000
" />
<path d="M67000 52500
L69500 52500
" />
<path d="M78500 37500
L78500 42000
" />
<path d="M67000 47500
L67000 48000
" />
<path d="M61500 28500
L61500 30000
" />
<path d="M67000 51000
L67000 52500
" />
<path d="M69500 52500
L69500 53500
" />
<path d="M67000 44500
L67000 44000
" />
<path d="M67000 44000
L64500 44000
" />
<path d="M72000 40000
L72000 37500
" />
<path d="M64500 40000
L72000 40000
" />
<path d="M64500 43000
L72000 43000
" />
<path d="M78500 47500
L78500 53500
" />
<path d="M72000 47500
L72000 48000
" />
<path d="M59500 51000
L59500 53500
" />
<path d="M60500 50000
L60500 51000
" />
<path d="M60500 51000
L59500 51000
" />
<path d="M59500 50000
L59500 51000
" />
</g>
<g style="fill:#000000; fill-opacity:1.0; 
stroke:#000000; stroke-width:60.000000; stroke-opacity:1; 
stroke-linecap:round; stroke-linejoin:round;">
<circle cx="59500.000000" cy="51000.000000" r="180.000000" /> 
<circle cx="69500.000000" cy="52500.000000" r="180.000000" /> 
<circle cx="78500.000000" cy="42000.000000" r="180.000000" /> 
</g> 
</svg>
